# xmcd
#
# Track frame offsets:
#	150
#	18886
#	42109
#	60692
#	87904
#	104408
#	133972
#	153896
#	183647
#	202003
#	220499
#	245632
#	261589
#	282261
#	305676
#
# Disc length: 4341 seconds
# Revision: 0
# Processed by: cddbd v1.5.2PL0 Copyright (c) Steve Scherf et al.
# Submitted via: dBpowerAMP V12.0
#
DISCID=e610f30f
DTITLE=Beth Hart - Front And Center (Live From New York)
DYEAR=2018
DGENRE=Blues
TTITLE0=Let's Get Together
TTITLE1=Baddest Blues
TTITLE2=Jazz Man
TTITLE3=Delicious Surprise
TTITLE4=Broken And Ugly
TTITLE5=St. Teresa
TTITLE6=Isolation
TTITLE7=Tell Her You Belong To Me
TTITLE8=Fat Man
TTITLE9=Love Gangster
TTITLE10=Leave The Light On
TTITLE11=As Long As I Have A Song
TTITLE12=Can't Let Go
TTITLE13=For My Friends
TTITLE14=No Place Like Home
EXTD=
EXTT0=
EXTT1=
EXTT2=
EXTT3=
EXTT4=
EXTT5=
EXTT6=
EXTT7=
EXTT8=
EXTT9=
EXTT10=
EXTT11=
EXTT12=
EXTT13=
EXTT14=
PLAYORDER=
